<?xml version="1.0" standalone="no"?>
<!DOCTYPE svg PUBLIC "-//W3C//DTD SVG 20010904//EN"
 "http://www.w3.org/TR/2001/REC-SVG-20010904/DTD/svg10.dtd">
<svg version="1.0" xmlns="http://www.w3.org/2000/svg"
 width="400.000000pt" height="400.000000pt" viewBox="0 0 400.000000 400.000000"
 preserveAspectRatio="xMidYMid meet">
<metadata>
Created by potrace 1.14, written by Peter Selinger 2001-2017
</metadata>
<g transform="translate(0.000000,400.000000) scale(0.100000,-0.100000)"
fill="#000000" stroke="none">
<path d="M235 3863 c-44 -23 -74 -53 -96 -95 -18 -36 -19 -86 -19 -1768 0
-1682 1 -1732 19 -1768 22 -43 53 -73 98 -96 29 -15 189 -16 1763 -16 1574 0
1734 1 1763 16 45 23 76 53 98 96 18 36 19 86 19 1768 0 1574 -1 1734 -16
1763 -23 45 -53 76 -96 98 -36 18 -86 19 -1770 19 -1560 -1 -1736 -2 -1763
-17z m3445 -1537 c0 -1077 -3 -1353 -12 -1352 -7 0 -13 -3 -13 -9 0 -5 6 -9
13 -9 9 1 12 -68 12 -317 l0 -320 -707 3 c-656 3 -710 4 -733 21 -19 13 -21
17 -7 17 9 0 17 6 17 13 0 6 5 19 10 27 8 13 11 13 19 1 7 -10 40 -15 124 -18
103 -4 115 -2 121 14 3 10 9 24 12 31 4 8 0 10 -10 6 -9 -3 -16 -14 -17 -23 0
-11 -3 -8 -10 7 -5 13 -13 20 -19 17 -5 -3 -10 -1 -10 4 0 6 5 11 12 11 6 0 8
3 5 6 -4 4 -13 1 -22 -6 -9 -7 -18 -10 -21 -7 -8 8 15 49 24 43 5 -3 8 4 9 14
2 24 -26 35 -33 12 -3 -9 -8 -24 -10 -32 -4 -12 -6 -12 -14 0 -7 12 -11 12
-26 -1 -10 -8 -15 -9 -11 -3 7 12 -13 24 -39 24 -8 0 -22 -8 -32 -18 -36 -36
-81 -62 -104 -60 -27 2 -77 -30 -78 -50 0 -7 -7 -15 -16 -19 -8 -3 -13 -12
-10 -19 5 -12 -55 -14 -364 -14 -344 0 -395 4 -359 25 6 4 8 13 5 21 -3 8 1
14 9 14 8 0 15 8 15 18 0 14 2 15 10 2 8 -13 10 -12 10 3 0 9 7 17 15 17 13 0
41 39 36 50 -12 25 -36 38 -64 33 -36 -6 -47 -18 -42 -45 3 -13 -1 -18 -12
-16 -9 2 -18 -3 -20 -9 -3 -7 1 -13 9 -13 7 -1 -3 -9 -22 -18 -21 -11 -34 -25
-34 -35 1 -9 -5 -17 -12 -17 -8 0 -17 -7 -20 -15 -9 -22 -139 -22 -148 0 -7
19 -45 19 -52 0 -5 -13 -45 -15 -276 -15 l-270 0 6 25 c6 24 5 25 -14 13 -23
-15 -25 -24 -7 -31 6 -3 -32 -6 -85 -6 l-98 -1 1 120 0 120 27 -13 c28 -14 62
-12 62 3 0 4 9 6 20 3 11 -3 20 -1 20 4 0 5 18 9 40 9 22 -1 40 -5 40 -9 0 -5
14 1 30 13 22 16 38 20 58 15 18 -4 24 -3 17 3 -5 6 -19 12 -30 15 -17 3 -15
6 12 19 26 11 30 17 21 26 -10 10 -10 15 1 21 17 11 3 20 -45 31 -28 7 -38 3
-65 -21 -24 -21 -35 -26 -40 -17 -6 10 -12 8 -22 -6 -9 -12 -20 -17 -31 -13
-9 4 -16 2 -16 -3 0 -6 -18 -10 -40 -10 -22 0 -40 -5 -40 -11 0 -5 -4 -7 -10
-4 -5 3 -10 15 -10 26 0 17 3 18 21 9 23 -13 49 -7 49 10 0 7 -8 9 -20 5 -38
-12 -48 13 -49 135 -2 83 1 116 11 122 10 8 10 11 1 15 -10 4 -13 291 -13
1374 l0 1369 1680 0 1680 0 0 -1354z"/>
<path d="M2700 3510 c0 -5 5 -10 11 -10 5 0 7 5 4 10 -3 6 -8 10 -11 10 -2 0
-4 -4 -4 -10z"/>
<path d="M2485 3469 c-4 -5 -13 -8 -20 -5 -8 3 -16 -6 -20 -22 -5 -20 -8 -23
-16 -11 -5 7 -9 10 -9 4 0 -5 -5 -3 -10 5 -5 8 -10 10 -10 4 0 -7 -11 -9 -25
-6 -24 4 -32 -9 -22 -35 4 -13 27 -12 27 0 0 7 5 4 11 -5 11 -19 39 -25 39 -8
0 17 30 -1 31 -19 0 -15 1 -15 11 1 11 14 14 14 31 -8 23 -30 53 -31 60 -1 3
12 9 32 12 45 6 18 3 22 -13 22 -12 0 -24 -4 -27 -10 -9 -15 -33 11 -28 31 6
20 -13 34 -22 18z"/>
<path d="M2680 3450 c0 -5 -13 -10 -29 -10 -21 0 -30 -6 -34 -22 -7 -24 3 -41
10 -20 7 18 33 15 33 -4 0 -12 5 -11 19 7 11 13 16 25 11 27 -5 2 -6 10 -3 18
3 8 2 14 -1 14 -3 0 -6 -4 -6 -10z"/>
<path d="M2588 3443 c7 -3 16 -2 19 1 4 3 -2 6 -13 5 -11 0 -14 -3 -6 -6z"/>
<path d="M1985 3409 c-11 -17 1 -21 15 -4 8 9 8 15 2 15 -6 0 -14 -5 -17 -11z"/>
<path d="M2030 3399 c0 -5 5 -7 10 -4 6 3 10 8 10 11 0 2 -4 4 -10 4 -5 0 -10
-5 -10 -11z"/>
<path d="M2821 3384 c0 -11 3 -14 6 -6 3 7 2 16 -1 19 -3 4 -6 -2 -5 -13z"/>
<path d="M2720 3380 c-12 -8 -13 -13 -3 -29 10 -15 10 -21 0 -25 -9 -3 -8 -7
3 -15 11 -8 17 -6 22 8 4 13 14 17 31 14 21 -4 24 -1 23 23 -1 34 -21 42 -30
12 l-6 -23 -13 22 c-9 16 -16 20 -27 13z"/>
<path d="M1957 3352 c5 -12 1 -14 -15 -10 -15 4 -19 2 -15 -8 3 -8 11 -14 19
-14 12 0 20 -27 15 -54 -1 -4 1 -16 4 -26 8 -27 45 -14 45 16 0 13 7 27 15 32
17 9 27 45 19 67 -5 12 -10 12 -30 -2 -13 -8 -24 -11 -24 -5 0 5 -9 12 -19 15
-15 3 -18 1 -14 -11z"/>
<path d="M2595 3330 c27 -12 35 -12 35 0 0 6 -12 10 -27 9 -25 0 -26 -1 -8 -9z"/>
<path d="M1904 3277 c-3 -11 -1 -24 5 -30 8 -8 11 -7 11 5 0 9 7 18 15 22 22
8 18 25 -5 23 -11 -1 -23 -10 -26 -20z"/>
<path d="M2810 3278 c0 -20 5 -28 18 -28 22 0 42 19 42 40 -1 12 -4 11 -15 -4
-15 -20 -15 -20 -30 0 -14 18 -14 18 -15 -8z"/>
<path d="M3165 3260 c-3 -5 -1 -10 4 -10 6 0 11 5 11 10 0 6 -2 10 -4 10 -3 0
-8 -4 -11 -10z"/>
<path d="M3581 3174 c0 -11 3 -14 6 -6 3 7 2 16 -1 19 -3 4 -6 -2 -5 -13z"/>
<path d="M2805 3150 c-3 -5 -1 -10 4 -10 6 0 11 5 11 10 0 6 -2 10 -4 10 -3 0
-8 -4 -11 -10z"/>
<path d="M3560 2990 c0 -5 5 -10 11 -10 5 0 7 5 4 10 -3 6 -8 10 -11 10 -2 0
-4 -4 -4 -10z"/>
<path d="M2445 2870 c3 -5 15 -10 26 -10 11 0 17 5 14 10 -3 6 -15 10 -26 10
-11 0 -17 -4 -14 -10z"/>
<path d="M2204 2820 c-35 -14 -36 -27 -3 -34 18 -3 35 -6 40 -6 14 0 10 30 -3
31 -7 0 -4 4 7 9 l20 9 -20 0 c-11 0 -30 -4 -41 -9z"/>
<path d="M3023 2813 c26 -7 20 -21 -10 -25 -16 -2 -28 -9 -28 -15 0 -7 3 -13
8 -13 4 0 26 0 49 0 33 0 39 3 30 12 -14 14 -16 29 -3 26 5 -2 11 2 13 7 1 6
-15 11 -37 12 -22 1 -32 -1 -22 -4z"/>
<path d="M2526 2718 c-9 -5 -16 -14 -16 -21 0 -8 3 -7 9 2 5 8 18 12 30 8 12
-3 23 -2 26 3 7 12 -30 19 -49 8z"/>
<path d="M820 2309 c0 -5 5 -7 10 -4 6 3 10 8 10 11 0 2 -4 4 -10 4 -5 0 -10
-5 -10 -11z"/>
<path d="M1140 2310 c-8 -5 -16 -14 -16 -20 -1 -5 -2 -16 -3 -22 -1 -9 -4 -8
-11 2 -5 8 -10 10 -10 4 0 -18 22 -31 58 -36 35 -5 45 11 12 19 -26 7 -25 19
2 26 18 5 19 8 8 21 -14 18 -20 19 -40 6z"/>
<path d="M2867 2274 c-11 -11 4 -33 19 -27 8 3 14 0 14 -6 0 -6 11 -8 30 -4
17 3 30 2 30 -3 0 -5 14 -9 31 -10 22 -1 29 2 25 13 -4 8 -6 19 -6 24 0 5 -7
9 -15 9 -8 0 -15 -4 -15 -10 0 -5 -9 -10 -20 -10 -11 0 -20 7 -20 15 0 18 -21
20 -38 3 -9 -9 -12 -9 -12 0 0 13 -13 16 -23 6z"/>
<path d="M3258 2243 c7 -3 16 -2 19 1 4 3 -2 6 -13 5 -11 0 -14 -3 -6 -6z"/>
<path d="M1770 2180 c0 -5 5 -10 10 -10 6 0 10 5 10 10 0 6 -4 10 -10 10 -5 0
-10 -4 -10 -10z"/>
<path d="M559 2151 c-28 -29 -29 -32 -29 -131 0 -99 1 -102 29 -131 l29 -29
567 0 567 0 29 29 c28 29 29 32 29 131 0 99 -1 102 -29 131 l-29 29 -567 0
-567 0 -29 -29z"/>
<path d="M2279 2151 c-28 -29 -29 -32 -29 -131 0 -99 1 -102 29 -131 l29 -29
567 0 567 0 29 29 c28 29 29 32 29 131 0 99 -1 102 -29 131 l-29 29 -567 0
-567 0 -29 -29z"/>
<path d="M3080 1741 c-5 -11 -10 -24 -10 -30 0 -17 27 -13 34 5 16 41 -4 62
-24 25z"/>
<path d="M2697 1744 c-14 -14 -7 -35 11 -32 9 2 17 10 17 17 0 16 -18 25 -28
15z"/>
<path d="M1080 1680 c0 -5 5 -10 10 -10 6 0 10 5 10 10 0 6 -4 10 -10 10 -5 0
-10 -4 -10 -10z"/>
<path d="M3075 1680 c-3 -5 1 -10 10 -10 9 0 13 5 10 10 -3 6 -8 10 -10 10 -2
0 -7 -4 -10 -10z"/>
<path d="M700 1490 c0 -6 7 -10 15 -10 8 0 15 2 15 4 0 2 -7 6 -15 10 -8 3
-15 1 -15 -4z"/>
<path d="M1530 1465 c0 -9 5 -15 11 -13 6 2 11 8 11 13 0 5 -5 11 -11 13 -6 2
-11 -4 -11 -13z"/>
<path d="M370 1458 c-15 -6 -20 -12 -12 -15 6 -3 10 -9 7 -14 -4 -5 -2 -16 3
-25 7 -13 11 -11 21 15 17 40 12 51 -19 39z"/>
<path d="M1075 1461 c-6 -11 9 -23 19 -14 9 9 7 23 -3 23 -6 0 -12 -4 -16 -9z"/>
<path d="M1645 1441 c-3 -5 8 -9 25 -9 16 1 30 5 30 10 0 11 -47 10 -55 -1z"/>
<path d="M2110 1439 c0 -5 5 -7 10 -4 6 3 10 8 10 11 0 2 -4 4 -10 4 -5 0 -10
-5 -10 -11z"/>
<path d="M330 1420 c0 -5 5 -10 11 -10 5 0 7 5 4 10 -3 6 -8 10 -11 10 -2 0
-4 -4 -4 -10z"/>
<path d="M3185 1410 c-3 -5 -1 -10 4 -10 6 0 11 5 11 10 0 6 -2 10 -4 10 -3 0
-8 -4 -11 -10z"/>
<path d="M2365 1391 c-7 -23 -35 -29 -35 -8 0 9 -16 13 -55 13 -46 -1 -55 -4
-55 -18 0 -10 6 -18 13 -19 17 -1 -24 -17 -45 -18 -10 -1 -18 6 -18 15 0 8 -4
12 -10 9 -23 -14 -9 -35 23 -35 18 0 38 -5 45 -12 8 -8 15 -8 27 2 11 9 15 9
15 1 0 -7 4 -10 9 -6 6 3 14 -1 18 -10 7 -12 14 -13 41 -3 25 10 35 21 43 52
11 42 -3 77 -16 37z m-88 -37 c-3 -3 -12 -4 -19 -1 -8 3 -5 6 6 6 11 1 17 -2
13 -5z"/>
<path d="M2402 1330 c-21 -23 -22 -25 -5 -29 10 -2 23 -7 29 -12 16 -13 44 0
37 17 -3 8 -11 14 -18 14 -8 0 -15 8 -17 17 -3 15 -6 14 -26 -7z"/>
<path d="M2475 1280 c-3 -5 -1 -10 4 -10 6 0 11 5 11 10 0 6 -2 10 -4 10 -3 0
-8 -4 -11 -10z"/>
<path d="M1748 1274 c-3 -3 -20 -6 -37 -6 -23 -1 -33 -7 -37 -23 -3 -12 -13
-21 -22 -21 -64 0 -78 -6 -102 -40 -14 -20 -34 -44 -44 -55 -11 -10 -16 -19
-12 -19 5 0 2 -10 -6 -22 -19 -30 -10 -113 12 -113 8 0 16 10 18 23 2 12 8 22
13 22 5 0 7 17 3 39 -5 33 -3 41 15 53 11 7 21 22 21 33 0 24 39 53 49 36 16
-25 109 19 111 53 0 4 7 6 15 2 8 -3 15 0 15 6 0 7 12 8 33 4 17 -3 39 -7 47
-8 8 -2 15 2 16 7 0 6 -20 15 -45 22 -55 14 -56 15 -63 7z"/>
<path d="M477 1263 c-4 -3 -7 -11 -7 -17 0 -6 5 -5 12 2 6 6 9 14 7 17 -3 3
-9 2 -12 -2z"/>
<path d="M2710 1230 c0 -12 8 -12 35 0 18 8 17 9 -7 9 -16 1 -28 -3 -28 -9z"/>
<path d="M428 1213 c7 -3 16 -2 19 1 4 3 -2 6 -13 5 -11 0 -14 -3 -6 -6z"/>
<path d="M3481 1174 c-19 -13 -30 -24 -26 -24 4 0 2 -7 -5 -15 -9 -11 -9 -15
-1 -15 7 0 10 -4 7 -9 -3 -5 1 -12 9 -15 8 -3 14 -9 13 -13 -2 -4 1 -9 6 -10
5 -1 12 -5 15 -10 3 -5 17 -6 31 -2 14 4 19 7 12 8 -20 2 12 31 35 32 10 0 13
3 5 6 -6 2 -15 22 -18 44 -4 21 -10 36 -15 33 -5 -3 -9 0 -9 5 0 17 -22 11
-59 -15z"/>
<path d="M669 1175 c-8 -9 -24 -27 -36 -39 -25 -25 -20 -43 6 -23 14 11 14 10
2 -5 -16 -21 -51 -24 -51 -4 0 11 -8 12 -41 3 -39 -9 -40 -11 -20 -22 20 -10
21 -13 6 -25 -13 -11 -18 -11 -32 3 -11 11 -22 13 -39 7 -15 -6 -24 -5 -26 2
-3 8 -11 7 -27 -4 -16 -11 -19 -17 -9 -21 9 -4 10 -8 1 -14 -6 -4 -13 -17 -15
-28 -2 -15 3 -21 22 -23 32 -5 51 -22 24 -22 -15 0 -16 -2 -5 -9 10 -6 12 -20
8 -43 -6 -37 6 -72 16 -47 3 9 6 9 6 2 1 -8 10 -9 32 -3 38 11 50 6 43 -18 -5
-16 -5 -16 9 1 18 21 27 22 27 1 0 -8 -4 -13 -9 -10 -5 3 -14 0 -20 -8 -9 -11
-5 -18 22 -34 53 -31 77 -36 77 -18 0 10 9 16 21 16 15 0 19 -5 15 -15 -3 -8
-1 -15 4 -15 6 0 10 5 10 10 0 6 5 10 11 10 6 0 9 -7 5 -15 -7 -20 1 -19 26 5
12 11 31 21 42 22 59 4 78 -8 68 -45 -3 -14 -1 -18 6 -13 7 4 12 17 12 29 0
18 2 19 10 7 6 -10 10 -11 10 -2 0 6 7 12 15 12 8 0 15 5 15 11 0 5 -5 7 -11
3 -9 -5 -10 1 -5 21 6 22 4 26 -8 22 -9 -4 -16 -2 -16 4 0 12 -43 1 -48 -12
-4 -10 -42 27 -42 41 0 15 -40 32 -76 32 -19 0 -34 4 -34 9 0 4 -7 6 -15 3 -8
-4 -15 -1 -15 6 0 6 -4 9 -9 6 -14 -9 -41 4 -41 20 0 9 11 14 28 14 l27 0 -25
20 c-21 17 -23 21 -10 30 12 8 11 10 -7 10 -24 0 -27 7 -17 34 3 9 11 13 16
10 6 -4 14 0 19 7 7 11 9 9 9 -7 0 -36 27 -37 39 -2 6 17 9 34 6 38 -2 4 0 24
6 44 12 43 7 55 -12 31z m-59 -269 c0 -3 -4 -8 -10 -11 -5 -3 -10 -1 -10 4 0
6 5 11 10 11 6 0 10 -2 10 -4z"/>
<path d="M2137 1183 c-4 -3 -7 -13 -7 -21 0 -12 3 -12 15 -2 8 7 15 16 15 21
0 11 -14 12 -23 2z"/>
<path d="M415 1161 c-12 -11 -3 -18 20 -13 14 2 25 7 25 11 0 7 -38 9 -45 2z"/>
<path d="M1100 1144 c0 -8 5 -12 10 -9 6 4 8 11 5 16 -9 14 -15 11 -15 -7z"/>
<path d="M1936 1152 c-5 -8 -44 -12 -122 -12 -114 0 -116 0 -145 -29 -28 -29
-29 -32 -29 -128 0 -72 4 -105 15 -119 20 -27 19 -34 -9 -34 -26 0 -55 25 -36
32 7 2 9 14 4 32 -5 23 -8 26 -16 13 -5 -9 -15 -14 -23 -11 -10 4 -15 0 -15
-12 0 -14 -3 -15 -12 -6 -8 8 -15 9 -25 1 -10 -9 -13 -6 -13 12 0 22 -2 21
-30 -11 -17 -19 -39 -52 -49 -73 -16 -31 -17 -39 -6 -43 20 -8 35 4 29 21 -8
19 38 40 63 30 20 -9 37 -11 105 -17 27 -1 48 -6 48 -10 0 -5 11 -8 25 -8 15
0 25 6 25 14 0 8 -7 13 -16 12 -9 0 -19 4 -21 11 -5 14 66 6 82 -9 6 -6 5 -8
-5 -6 -9 2 -16 -6 -18 -21 -3 -22 -1 -23 25 -16 15 4 42 7 58 7 22 0 34 6 40
21 11 25 12 25 273 26 l164 1 29 29 c28 29 29 32 29 131 0 99 -1 102 -29 131
l-29 29 -175 0 c-128 0 -176 3 -179 12 -3 9 -6 9 -12 0z"/>
<path d="M2555 1064 c-16 -7 -25 -13 -18 -14 6 0 16 -12 21 -27 6 -17 11 -21
11 -11 1 11 6 15 16 12 8 -4 15 -1 15 5 0 6 8 8 18 4 15 -5 15 -4 2 8 -8 8
-19 19 -25 25 -7 9 -18 8 -40 -2z"/>
<path d="M3060 1006 c0 -9 30 -14 35 -6 4 6 -3 10 -14 10 -12 0 -21 -2 -21 -4z"/>
<path d="M361 953 c-7 -8 -10 -17 -7 -21 13 -12 45 -8 51 6 7 20 -4 30 -15 13
-6 -11 -9 -11 -11 2 -4 13 -6 13 -18 0z"/>
<path d="M1000 950 c0 -5 7 -10 15 -10 8 0 15 5 15 10 0 6 -7 10 -15 10 -8 0
-15 -4 -15 -10z"/>
<path d="M3114 932 c-24 -20 -21 -42 7 -42 11 0 27 -4 37 -9 9 -5 25 -12 36
-15 10 -4 16 -12 13 -19 -2 -6 2 -18 9 -25 11 -10 17 -9 32 6 12 12 25 16 38
11 10 -3 22 -5 27 -2 4 2 10 -3 13 -11 3 -9 13 -16 20 -16 8 0 17 -7 20 -15 8
-20 63 -20 71 1 3 9 13 14 24 11 10 -3 20 2 23 10 5 11 10 12 19 5 8 -7 18 -7
27 -2 11 7 7 10 -13 16 -16 3 -26 11 -24 18 5 12 11 12 41 0 14 -5 17 -3 14 7
-3 8 -11 14 -19 14 -8 0 -17 7 -20 15 -4 11 -10 7 -23 -15 l-17 -30 3 35 c3
35 3 35 -29 32 -20 -3 -33 -10 -33 -18 0 -8 -3 -14 -7 -15 -5 0 -16 -2 -25 -4
-10 -2 -18 2 -18 8 0 8 -4 7 -12 -1 -15 -15 -28 -15 -28 -1 0 5 6 7 13 3 9 -5
9 -4 0 6 -10 11 -15 11 -28 0 -12 -10 -15 -10 -15 1 0 12 -2 12 -9 1 -6 -10
-10 -9 -14 7 -3 15 -13 21 -31 21 -14 0 -26 5 -26 11 0 8 -12 10 -34 6 -19 -3
-36 -2 -38 3 -2 5 -12 1 -24 -8z"/>
<path d="M3620 889 c0 -5 5 -7 10 -4 6 3 10 8 10 11 0 2 -4 4 -10 4 -5 0 -10
-5 -10 -11z"/>
<path d="M1230 880 c0 -5 7 -10 15 -10 8 0 15 5 15 10 0 6 -7 10 -15 10 -8 0
-15 -4 -15 -10z"/>
<path d="M2632 875 c-10 -11 -18 -13 -32 -5 -24 13 -50 13 -50 0 0 -5 7 -10
15 -10 8 0 15 -7 15 -15 0 -8 6 -16 13 -16 6 -1 18 -2 26 -3 20 -2 26 -26 7
-26 -14 0 -14 -2 1 -20 19 -21 23 -20 27 6 3 19 26 33 26 15 0 -6 12 -10 28
-10 15 1 20 3 10 6 -9 2 -15 10 -12 17 6 15 -22 30 -37 20 -5 -3 -9 -1 -9 5 0
5 5 13 10 16 6 3 10 13 10 21 0 18 -31 18 -48 -1z"/>
<path d="M2780 838 c0 -3 -3 -15 -7 -25 -6 -15 -4 -16 9 -5 12 10 21 9 43 -2
32 -17 45 -13 45 14 0 14 -9 19 -45 22 -25 2 -45 0 -45 -4z"/>
<path d="M1060 810 c0 -6 7 -10 15 -10 8 0 15 2 15 4 0 2 -7 6 -15 10 -8 3
-15 1 -15 -4z"/>
<path d="M1100 800 c0 -5 5 -10 10 -10 6 0 10 5 10 10 0 6 -4 10 -10 10 -5 0
-10 -4 -10 -10z"/>
<path d="M2040 795 c0 -9 6 -12 15 -9 8 4 12 10 9 15 -8 14 -24 10 -24 -6z"/>
<path d="M555 770 c-3 -5 -1 -10 4 -10 6 0 11 5 11 10 0 6 -2 10 -4 10 -3 0
-8 -4 -11 -10z"/>
<path d="M3032 762 c-3 -8 2 -20 12 -27 9 -7 15 -18 14 -25 -2 -7 3 -15 10
-17 6 -3 12 3 12 12 0 9 6 15 13 12 6 -2 11 -9 10 -15 -1 -5 4 -13 12 -16 8
-3 15 -2 15 2 1 19 18 32 34 26 10 -4 13 -9 7 -13 -20 -13 7 -32 46 -34 23 -1
39 -5 36 -9 -2 -5 4 -9 14 -9 10 -1 28 -3 41 -4 12 -1 22 2 22 6 0 5 11 9 25
9 14 0 25 4 25 9 0 13 -43 22 -51 10 -3 -6 -11 -3 -20 7 -9 12 -10 15 -1 10 7
-4 12 -1 12 8 0 20 -48 32 -63 17 -16 -16 -26 -13 -22 7 2 14 -4 16 -41 13
-30 -2 -44 1 -44 9 0 8 -9 10 -25 6 -14 -4 -25 -2 -25 3 0 16 -61 19 -68 3z"/>
<path d="M3365 751 c-5 -18 9 -61 21 -61 6 0 -2 69 -9 76 -3 3 -8 -4 -12 -15z"/>
<path d="M1416 727 c-3 -13 -17 -41 -31 -62 -16 -22 -23 -41 -17 -47 12 -12
60 58 68 100 7 37 -11 45 -20 9z"/>
<path d="M2240 736 c0 -2 7 -7 16 -10 8 -3 12 -2 9 4 -6 10 -25 14 -25 6z"/>
<path d="M2670 716 c0 -2 7 -6 15 -10 8 -3 15 -1 15 4 0 6 -7 10 -15 10 -8 0
-15 -2 -15 -4z"/>
<path d="M2659 660 c-11 -29 -19 -34 -48 -31 -8 2 -10 -2 -6 -9 4 -7 2 -16 -4
-20 -7 -4 -13 -13 -14 -21 -2 -8 -6 -20 -10 -26 -5 -7 -5 -18 -1 -24 5 -8 8
-8 14 0 4 8 14 9 32 2 20 -7 32 -4 68 20 30 21 52 28 67 24 13 -3 23 -1 23 5
0 5 -7 10 -15 10 -9 0 -20 12 -26 26 -9 26 -10 26 -25 8 -12 -15 -15 -16 -11
-2 4 10 -1 18 -13 21 -13 3 -17 11 -13 26 8 32 -7 25 -18 -9z"/>
<path d="M2920 680 c0 -5 7 -10 15 -10 8 0 15 5 15 10 0 6 -7 10 -15 10 -8 0
-15 -4 -15 -10z"/>
<path d="M2540 670 c0 -5 5 -10 10 -10 6 0 10 5 10 10 0 6 -4 10 -10 10 -5 0
-10 -4 -10 -10z"/>
<path d="M1165 660 c-3 -5 -1 -10 4 -10 6 0 11 5 11 10 0 6 -2 10 -4 10 -3 0
-8 -4 -11 -10z"/>
<path d="M1516 662 c-3 -6 -1 -14 5 -17 14 -9 20 -2 10 14 -6 8 -11 9 -15 3z"/>
<path d="M1560 660 c0 -5 5 -10 10 -10 6 0 10 5 10 10 0 6 -4 10 -10 10 -5 0
-10 -4 -10 -10z"/>
<path d="M678 643 c7 -3 16 -2 19 1 4 3 -2 6 -13 5 -11 0 -14 -3 -6 -6z"/>
<path d="M1090 639 c0 -5 5 -7 10 -4 6 3 10 8 10 11 0 2 -4 4 -10 4 -5 0 -10
-5 -10 -11z"/>
<path d="M1550 629 c0 -5 5 -7 10 -4 6 3 10 8 10 11 0 2 -4 4 -10 4 -5 0 -10
-5 -10 -11z"/>
<path d="M1588 618 c4 -18 47 -36 59 -24 10 9 -16 33 -41 38 -19 4 -22 1 -18
-14z"/>
<path d="M1885 622 c-10 -10 -5 -24 8 -19 6 2 20 0 30 -5 9 -5 17 -5 17 -1 0
11 -47 32 -55 25z"/>
<path d="M1757 585 c-15 -30 -14 -34 0 -39 9 -4 20 -2 23 5 4 6 18 16 31 23
34 17 30 38 -7 41 -27 2 -34 -2 -47 -30z"/>
<path d="M1350 584 c0 -8 5 -12 10 -9 6 3 10 10 10 16 0 5 -4 9 -10 9 -5 0
-10 -7 -10 -16z"/>
<path d="M2843 570 c-12 -10 -23 -18 -25 -17 -2 1 5 -4 15 -12 17 -13 16 -15
-10 -33 l-28 -18 38 2 c25 1 36 6 33 15 -3 7 13 23 37 37 42 25 41 28 -14 40
-17 4 -32 -1 -46 -14z m37 -20 c0 -5 -5 -10 -11 -10 -5 0 -7 5 -4 10 3 6 8 10
11 10 2 0 4 -4 4 -10z"/>
<path d="M716 555 c-17 -13 -17 -15 -4 -15 9 0 19 4 23 10 3 5 13 7 23 4 14
-5 15 -4 2 5 -19 14 -21 13 -44 -4z"/>
<path d="M340 451 c0 -5 11 -11 25 -13 20 -4 23 -3 14 8 -13 16 -39 19 -39 5z"/>
<path d="M470 440 c8 -5 24 -10 35 -10 17 0 17 2 5 10 -8 5 -24 10 -35 10 -17
0 -17 -2 -5 -10z"/>
<path d="M588 443 c-21 -5 -23 -14 -5 -32 10 -10 9 -11 -5 -6 -13 5 -18 2 -18
-9 0 -22 16 -20 40 4 31 31 25 51 -12 43z"/>
<path d="M1498 443 c7 -3 16 -2 19 1 4 3 -2 6 -13 5 -11 0 -14 -3 -6 -6z"/>
<path d="M2080 440 c0 -5 7 -10 15 -10 8 0 15 5 15 10 0 6 -7 10 -15 10 -8 0
-15 -4 -15 -10z"/>
<path d="M437 434 c-4 -4 -7 -14 -7 -23 0 -11 3 -12 11 -4 6 6 10 16 7 23 -2
6 -7 8 -11 4z"/>
<path d="M2127 433 c-3 -5 1 -13 8 -20 10 -10 14 -9 18 1 8 21 -15 37 -26 19z"/>
<path d="M2013 423 c-17 -6 -16 -23 1 -23 8 0 16 7 20 15 6 15 1 17 -21 8z"/>
<path d="M474 399 c-11 -19 13 -34 31 -19 13 11 13 15 3 21 -18 12 -26 11 -34
-2z"/>
<path d="M2540 381 c-7 -15 -7 -21 0 -21 12 0 25 28 17 36 -3 3 -10 -4 -17
-15z"/>
<path d="M2695 381 c-6 -11 9 -23 19 -14 9 9 7 23 -3 23 -6 0 -12 -4 -16 -9z"/>
</g>
</svg>
